# xmcd CD database file
#
# Track frame offsets:
#	150
#	31064
#	34718
#	70994
#	82527
#	100974
#	111213
#	128688
#	153322
#	173500
#	175549
#	204095
#	215003
#
# Disc length: 3170 seconds
#
# Revision: 2
# Processed by: cddbd v1.5.1PL0 Copyright (c) Steve Scherf et al.
# Submitted via: CDex 1.51
#
DISCID=950c600d
DTITLE=Salvatore Bonafede Quintet - Journey to Donnafugata
DYEAR=2004
DGENRE=Jazz
TTITLE0=Viaggio a Donnafugata (1)
TTITLE1=Gran Valzer (solo Tp) (1)
TTITLE2=Reputation and Character
TTITLE3=Mazurka
TTITLE4=Polka
TTITLE5=Controdanza - Taceas, Me Spectes
TTITLE6=Galop
TTITLE7=Quadriglia
TTITLE8=Taceas, Me Spectes
TTITLE9=Gran Valzer (solo Tp) (2)
TTITLE10=Angelica
TTITLE11=Valzer del Commiato
TTITLE12=Viaggio a Donnafugata (1)
EXTD=YEAR: 2004
EXTT0=
EXTT1=
EXTT2=
EXTT3=
EXTT4=
EXTT5=
EXTT6=
EXTT7=
EXTT8=
EXTT9=
EXTT10=
EXTT11=
EXTT12=
PLAYORDER=
